<svg width="400" height="400" viewBox="0 0 400 400" fill="none" xmlns="http://www.w3.org/2000/svg"><path fill="#2C3D4D" d="M0 0h400v400H0z"/><g filter="url(#a)" fill="#68E6FA"><path d="m123.011 39.938-34.574 55.66.488.58 60.832-24.346 15.881 18.938-84.939 30.996-18.89-22.528L107.13 21zm-16.183 112.987 65.131-54.617L196.44 127.5q6.593 7.862 8.969 14.894 2.405 7.067.92 12.853-1.457 5.821-6.354 9.928-3.72 3.12-8.051 3.899-4.3.752-8.672-.588-4.374-1.34-8.376-4.563l-.636.534q3.363 4.398 4.434 9.615 1.098 5.25-.533 10.344-1.6 5.068-6.307 9.015-5.247 4.4-11.79 4.996-6.51.569-13.453-2.866-6.911-3.462-13.419-11.222zm26.879 6.28 8.772 10.461q4.615 5.504 8.734 6.474 4.146 1.006 7.613-1.901 2.512-2.107 3.265-4.892.783-2.811-.18-5.963-.931-3.177-3.655-6.425l-9.03-10.768zm25.664-21.521 7.855 9.366q2.322 2.769 4.986 4.203 2.665 1.433 5.29 1.27 2.654-.13 4.944-2.05 3.275-2.747 3.059-6.816t-3.771-8.307l-8.084-9.64zm13.762 94.309-15.25-18.186 84.938-30.996 18.891 22.528-45.322 78.238-15.25-18.186 34.932-57.299-.459-.547zm23.597-23.922 31.877 38.013-11.958 10.027-31.876-38.013zm141.077 88.01-65.131 54.617-12.04-14.358 14.227-59.382-.372-.444-37.59 31.522-14.19-16.921 65.131-54.617 12.211 14.562-14.421 59.021.487.582 37.527-31.469z"/></g><g filter="url(#b)"><path fill="#2C3D4D" fill-opacity=".9" d="M0 0h400v400H0z"/></g><defs><filter id="a" x="61.808" y="21" width="289.999" height="353.698" filterUnits="userSpaceOnUse" color-interpolation-filters="sRGB"><feFlood flood-opacity="0" result="BackgroundImageFix"/><feColorMatrix in="SourceAlpha" values="0 0 0 0 0 0 0 0 0 0 0 0 0 0 0 0 0 0 127 0" result="hardAlpha"/><feOffset dx="10" dy="20"/><feGaussianBlur stdDeviation="2"/><feComposite in2="hardAlpha" operator="out"/><feColorMatrix values="0 0 0 0 0 0 0 0 0 0 0 0 0 0 0 0 0 0 0.5 0"/><feBlend in2="BackgroundImageFix" result="effect1_dropShadow_73_89"/><feBlend in="SourceGraphic" in2="effect1_dropShadow_73_89" result="shape"/></filter><filter id="b" x="-10" y="-10" width="420" height="420" filterUnits="userSpaceOnUse" color-interpolation-filters="sRGB"><feFlood flood-opacity="0" result="BackgroundImageFix"/><feGaussianBlur in="BackgroundImageFix" stdDeviation="5"/><feComposite in2="SourceAlpha" operator="in" result="effect1_backgroundBlur_73_89"/><feBlend in="SourceGraphic" in2="effect1_backgroundBlur_73_89" result="shape"/></filter></defs></svg>