<?xml version="1.0" encoding="UTF-8" standalone="no"?>
<svg width="1024" height="1024" viewBox="0 0 1024 1024" fill="none" xmlns="http://www.w3.org/2000/svg">
	<path fill="#2C3D4D" d="M0 0h1024v1024H0z"/>
	<path fill="#68E6FA" d="M238 314h548v396H238z"/>
	<path fill="#68E6FA" d="M238 314h548v396H238z"/>
	<path fill="#2C3D4D" d="M294 319h437v387H294z"/>
	<path d="M638.17 609v-85H691v16.685h-34.517v17.431h31.816v16.726h-31.816v17.473H691V609zm-11.497-85v85H608.36v-85zm-91.463 85v-85h18.313v35.942h.999L579.568 524h21.569l-26.859 37.935L601.618 609h-21.902l-18.868-33.411-7.325 10.376V609zm-59.314 0v-85h18.313v68.315h31.521V609zm-63.985 0h-19.682l25.565-85h24.38l25.564 85h-19.682l-17.795-63.584h-.592zm-2.626-33.452h41.139v15.605h-41.139zM332 540.685V524h64.04v16.685h-22.974V609h-18.054v-68.315zm93.071-82.185q0 13.976-6.189 23.693t-16.758 14.762Q391.603 502 378.512 502q-13.14 0-23.661-5.086t-16.71-14.762Q332 472.435 332 458.5q0-13.976 6.141-23.693 6.189-9.718 16.71-14.762T378.512 415q13.09 0 23.612 5.045 10.569 5.044 16.758 14.762t6.189 23.693m-24.089 0q0-8.27-2.714-13.976-2.666-5.706-7.712-8.642-4.999-2.936-12.044-2.936-6.999 0-12.045 2.936t-7.76 8.642q-2.666 5.706-2.666 13.976t2.666 13.976q2.714 5.706 7.76 8.642t12.045 2.936q7.045 0 12.044-2.936 5.046-2.936 7.712-8.642 2.714-5.706 2.714-13.976m37.847 42.342v-84.684h40.275q10.95 0 18.9 3.721 7.998 3.681 12.33 10.296 4.332 6.575 4.332 15.3 0 8.766-4.427 15.341-4.38 6.533-12.521 10.13-8.14 3.598-19.328 3.598h-24.851v-16.127h20.471q5.332 0 8.902-1.612 3.619-1.613 5.475-4.507 1.857-2.937 1.857-6.823 0-3.928-1.857-6.782-1.856-2.894-5.475-4.465-3.618-1.572-8.902-1.572h-11.616v68.186zm87.453 0v-84.684h67.982v16.622h-44.417v17.367h40.942v16.664h-40.942v17.409h44.417v16.622zM692 416.158v84.684h-19.995l-38.799-48.875h-.619v48.875h-23.565v-84.684h20.28l38.371 48.793h.809v-48.793z" fill="#68E6FA"/>
</svg>