<svg width="128" height="128" viewBox="0 0 128 128" fill="none" xmlns="http://www.w3.org/2000/svg">
	<path d="M31.118 44.364q0 3.84-1.477 6.511-1.478 2.67-4 4.057-2.512 1.386-5.637 1.386-3.135 0-5.648-1.398-2.51-1.397-3.988-4.056-1.466-2.67-1.466-6.5 0-3.841 1.466-6.512 1.477-2.67 3.989-4.056 2.51-1.387 5.647-1.387 3.125 0 5.637 1.386 2.522 1.387 4 4.057 1.477 2.67 1.477 6.512m-5.75 0q0-2.273-.648-3.841-.636-1.569-1.84-2.375-1.194-.807-2.876-.807-1.67 0-2.875.807-1.204.807-1.852 2.375-.636 1.568-.636 3.84 0 2.273.636 3.842.648 1.568 1.852 2.375t2.875.806q1.682 0 2.875-.806 1.205-.807 1.841-2.375.648-1.569.648-3.841M42.402 56V32.727h9.614q2.613 0 4.511 1.023 1.91 1.01 2.943 2.83 1.034 1.807 1.034 4.204 0 2.409-1.057 4.216-1.046 1.796-2.988 2.784-1.944.99-4.614.989h-5.932V44.34H50.8q1.272 0 2.125-.443a3.04 3.04 0 0 0 1.306-1.239q.444-.807.444-1.875 0-1.079-.444-1.864a2.97 2.97 0 0 0-1.306-1.227q-.864-.432-2.125-.432h-2.773V56zm28.875 0V32.727h16.227v4.569H76.902v4.772h9.773v4.58h-9.773v4.784h10.602V56zm47.557-23.273V56h-4.773L104.8 42.568h-.148V56h-5.625V32.727h4.841l9.159 13.41h.193v-13.41zM8.484 76.296v-4.569h19.67v4.569h-7.056V95h-5.545V76.296zM33.03 95h-6.046l7.853-23.273h7.488L50.178 95h-6.046l-5.466-17.41h-.182zm-.807-9.16h12.636v4.274H32.223zM52.683 95V71.727h5.625v18.705h9.682V95zm18.219 0V71.727h5.625v9.841h.307l7.693-9.84h6.625l-8.25 10.386L91.3 95h-6.728l-5.795-9.148-2.25 2.841V95zm28.094-23.273V95H93.37V71.727zM102.527 95V71.727h16.227v4.569h-10.602v4.772h9.773v4.58h-9.773v4.784h10.602V95z" fill="#fff"/>
</svg>